<svg id="visual" viewBox="0 0 900 600" width="900" height="600" xmlns="http://www.w3.org/2000/svg" xmlns:xlink="http://www.w3.org/1999/xlink" version="1.1"><rect x="0" y="0" width="900" height="600" fill="#1c2394"></rect><path d="M0 435L129 379L257 428L386 428L514 367L643 445L771 430L900 408L900 601L771 601L643 601L514 601L386 601L257 601L129 601L0 601Z" fill="#4facf7"></path><path d="M0 400L129 455L257 435L386 401L514 472L643 415L771 406L900 413L900 601L771 601L643 601L514 601L386 601L257 601L129 601L0 601Z" fill="#2b9dfc"></path><path d="M0 464L129 511L257 446L386 505L514 458L643 437L771 463L900 466L900 601L771 601L643 601L514 601L386 601L257 601L129 601L0 601Z" fill="#008cff"></path><path d="M0 482L129 529L257 533L386 528L514 521L643 486L771 508L900 496L900 601L771 601L643 601L514 601L386 601L257 601L129 601L0 601Z" fill="#007aff"></path><path d="M0 542L129 539L257 545L386 541L514 573L643 564L771 552L900 547L900 601L771 601L643 601L514 601L386 601L257 601L129 601L0 601Z" fill="#0066ff"></path></svg>